<mxfile host="app.diagrams.net" modified="2022-12-13T12:30:28.778Z" agent="5.0 (Windows NT 10.0; Win64; x64) AppleWebKit/537.36 (KHTML, like Gecko) Chrome/108.0.0.0 Safari/537.36" version="20.6.0" etag="-Fz38Ejqhxpu8OPCRPaL" type="github">
  <diagram id="FbtvG5ja3MR5aEfaAjsH" name="Страница 1">
    <mxGraphModel dx="342" dy="1622" grid="1" gridSize="10" guides="1" tooltips="1" connect="1" arrows="1" fold="1" page="1" pageScale="1" pageWidth="827" pageHeight="1169" math="0" shadow="0">
      <root>
        <mxCell id="0" />
        <mxCell id="1" parent="0" />
        <mxCell id="low-MrS_bK9RDzKWT8P9-1" value="ClinicalStudyApplicantRequest" style="swimlane;fontStyle=1;align=center;verticalAlign=top;childLayout=stackLayout;horizontal=1;startSize=26;horizontalStack=0;resizeParent=1;resizeParentMax=0;resizeLast=0;collapsible=1;marginBottom=0;" vertex="1" parent="1">
          <mxGeometry x="333.5" y="370" width="226.5" height="372" as="geometry" />
        </mxCell>
        <mxCell id="low-MrS_bK9RDzKWT8P9-2" value="+ RequestText : string" style="text;strokeColor=none;fillColor=none;align=left;verticalAlign=top;spacingLeft=4;spacingRight=4;overflow=hidden;rotatable=0;points=[[0,0.5],[1,0.5]];portConstraint=eastwest;" vertex="1" parent="low-MrS_bK9RDzKWT8P9-1">
          <mxGeometry y="26" width="226.5" height="26" as="geometry" />
        </mxCell>
        <mxCell id="low-MrS_bK9RDzKWT8P9-40" value="+ RequestAdditionalText : string" style="text;strokeColor=none;fillColor=none;align=left;verticalAlign=top;spacingLeft=4;spacingRight=4;overflow=hidden;rotatable=0;points=[[0,0.5],[1,0.5]];portConstraint=eastwest;" vertex="1" parent="low-MrS_bK9RDzKWT8P9-1">
          <mxGeometry y="52" width="226.5" height="26" as="geometry" />
        </mxCell>
        <mxCell id="low-MrS_bK9RDzKWT8P9-43" value="+ RequestFileId : string" style="text;strokeColor=none;fillColor=none;align=left;verticalAlign=top;spacingLeft=4;spacingRight=4;overflow=hidden;rotatable=0;points=[[0,0.5],[1,0.5]];portConstraint=eastwest;" vertex="1" parent="low-MrS_bK9RDzKWT8P9-1">
          <mxGeometry y="78" width="226.5" height="26" as="geometry" />
        </mxCell>
        <mxCell id="low-MrS_bK9RDzKWT8P9-46" value="+ DossierId : int" style="text;strokeColor=none;fillColor=none;align=left;verticalAlign=top;spacingLeft=4;spacingRight=4;overflow=hidden;rotatable=0;points=[[0,0.5],[1,0.5]];portConstraint=eastwest;" vertex="1" parent="low-MrS_bK9RDzKWT8P9-1">
          <mxGeometry y="104" width="226.5" height="26" as="geometry" />
        </mxCell>
        <mxCell id="low-MrS_bK9RDzKWT8P9-47" value="+ DossierGuid : Guid" style="text;strokeColor=none;fillColor=none;align=left;verticalAlign=top;spacingLeft=4;spacingRight=4;overflow=hidden;rotatable=0;points=[[0,0.5],[1,0.5]];portConstraint=eastwest;" vertex="1" parent="low-MrS_bK9RDzKWT8P9-1">
          <mxGeometry y="130" width="226.5" height="26" as="geometry" />
        </mxCell>
        <mxCell id="low-MrS_bK9RDzKWT8P9-45" value="+ ProtocolName : string" style="text;strokeColor=none;fillColor=none;align=left;verticalAlign=top;spacingLeft=4;spacingRight=4;overflow=hidden;rotatable=0;points=[[0,0.5],[1,0.5]];portConstraint=eastwest;" vertex="1" parent="low-MrS_bK9RDzKWT8P9-1">
          <mxGeometry y="156" width="226.5" height="26" as="geometry" />
        </mxCell>
        <mxCell id="low-MrS_bK9RDzKWT8P9-44" value="+ ProtocolNumber : string" style="text;strokeColor=none;fillColor=none;align=left;verticalAlign=top;spacingLeft=4;spacingRight=4;overflow=hidden;rotatable=0;points=[[0,0.5],[1,0.5]];portConstraint=eastwest;" vertex="1" parent="low-MrS_bK9RDzKWT8P9-1">
          <mxGeometry y="182" width="226.5" height="26" as="geometry" />
        </mxCell>
        <mxCell id="low-MrS_bK9RDzKWT8P9-42" value="+ LF : string" style="text;strokeColor=none;fillColor=none;align=left;verticalAlign=top;spacingLeft=4;spacingRight=4;overflow=hidden;rotatable=0;points=[[0,0.5],[1,0.5]];portConstraint=eastwest;" vertex="1" parent="low-MrS_bK9RDzKWT8P9-1">
          <mxGeometry y="208" width="226.5" height="26" as="geometry" />
        </mxCell>
        <mxCell id="low-MrS_bK9RDzKWT8P9-41" value="+ DtEndFact : DateTime?" style="text;strokeColor=none;fillColor=none;align=left;verticalAlign=top;spacingLeft=4;spacingRight=4;overflow=hidden;rotatable=0;points=[[0,0.5],[1,0.5]];portConstraint=eastwest;" vertex="1" parent="low-MrS_bK9RDzKWT8P9-1">
          <mxGeometry y="234" width="226.5" height="26" as="geometry" />
        </mxCell>
        <mxCell id="low-MrS_bK9RDzKWT8P9-39" value="+ RenewalDate : DateTime?" style="text;strokeColor=none;fillColor=none;align=left;verticalAlign=top;spacingLeft=4;spacingRight=4;overflow=hidden;rotatable=0;points=[[0,0.5],[1,0.5]];portConstraint=eastwest;" vertex="1" parent="low-MrS_bK9RDzKWT8P9-1">
          <mxGeometry y="260" width="226.5" height="26" as="geometry" />
        </mxCell>
        <mxCell id="low-MrS_bK9RDzKWT8P9-48" value="+ Signatory : OldUser" style="text;strokeColor=none;fillColor=none;align=left;verticalAlign=top;spacingLeft=4;spacingRight=4;overflow=hidden;rotatable=0;points=[[0,0.5],[1,0.5]];portConstraint=eastwest;" vertex="1" parent="low-MrS_bK9RDzKWT8P9-1">
          <mxGeometry y="286" width="226.5" height="26" as="geometry" />
        </mxCell>
        <mxCell id="low-MrS_bK9RDzKWT8P9-49" value="+ Performer : OldUser" style="text;strokeColor=none;fillColor=none;align=left;verticalAlign=top;spacingLeft=4;spacingRight=4;overflow=hidden;rotatable=0;points=[[0,0.5],[1,0.5]];portConstraint=eastwest;" vertex="1" parent="low-MrS_bK9RDzKWT8P9-1">
          <mxGeometry y="312" width="226.5" height="26" as="geometry" />
        </mxCell>
        <mxCell id="low-MrS_bK9RDzKWT8P9-3" value="" style="line;strokeWidth=1;fillColor=none;align=left;verticalAlign=middle;spacingTop=-1;spacingLeft=3;spacingRight=3;rotatable=0;labelPosition=right;points=[];portConstraint=eastwest;strokeColor=inherit;" vertex="1" parent="low-MrS_bK9RDzKWT8P9-1">
          <mxGeometry y="338" width="226.5" height="8" as="geometry" />
        </mxCell>
        <mxCell id="low-MrS_bK9RDzKWT8P9-4" value=" " style="text;strokeColor=none;fillColor=none;align=left;verticalAlign=top;spacingLeft=4;spacingRight=4;overflow=hidden;rotatable=0;points=[[0,0.5],[1,0.5]];portConstraint=eastwest;" vertex="1" parent="low-MrS_bK9RDzKWT8P9-1">
          <mxGeometry y="346" width="226.5" height="26" as="geometry" />
        </mxCell>
        <mxCell id="low-MrS_bK9RDzKWT8P9-5" value="ApplicantRequestLimitedPrice" style="swimlane;fontStyle=1;align=center;verticalAlign=top;childLayout=stackLayout;horizontal=1;startSize=26;horizontalStack=0;resizeParent=1;resizeParentMax=0;resizeLast=0;collapsible=1;marginBottom=0;" vertex="1" parent="1">
          <mxGeometry x="870" y="370" width="230" height="86" as="geometry" />
        </mxCell>
        <mxCell id="low-MrS_bK9RDzKWT8P9-6" value=" " style="text;strokeColor=none;fillColor=none;align=left;verticalAlign=top;spacingLeft=4;spacingRight=4;overflow=hidden;rotatable=0;points=[[0,0.5],[1,0.5]];portConstraint=eastwest;" vertex="1" parent="low-MrS_bK9RDzKWT8P9-5">
          <mxGeometry y="26" width="230" height="26" as="geometry" />
        </mxCell>
        <mxCell id="low-MrS_bK9RDzKWT8P9-7" value="" style="line;strokeWidth=1;fillColor=none;align=left;verticalAlign=middle;spacingTop=-1;spacingLeft=3;spacingRight=3;rotatable=0;labelPosition=right;points=[];portConstraint=eastwest;strokeColor=inherit;" vertex="1" parent="low-MrS_bK9RDzKWT8P9-5">
          <mxGeometry y="52" width="230" height="8" as="geometry" />
        </mxCell>
        <mxCell id="low-MrS_bK9RDzKWT8P9-8" value=" " style="text;strokeColor=none;fillColor=none;align=left;verticalAlign=top;spacingLeft=4;spacingRight=4;overflow=hidden;rotatable=0;points=[[0,0.5],[1,0.5]];portConstraint=eastwest;" vertex="1" parent="low-MrS_bK9RDzKWT8P9-5">
          <mxGeometry y="60" width="230" height="26" as="geometry" />
        </mxCell>
        <mxCell id="low-MrS_bK9RDzKWT8P9-9" value="MedicamentRegistrationApplicantRequest" style="swimlane;fontStyle=1;align=center;verticalAlign=top;childLayout=stackLayout;horizontal=1;startSize=26;horizontalStack=0;resizeParent=1;resizeParentMax=0;resizeLast=0;collapsible=1;marginBottom=0;" vertex="1" parent="1">
          <mxGeometry x="30" y="370" width="280" height="450" as="geometry" />
        </mxCell>
        <mxCell id="low-MrS_bK9RDzKWT8P9-10" value="+ Ean: string" style="text;strokeColor=none;fillColor=none;align=left;verticalAlign=top;spacingLeft=4;spacingRight=4;overflow=hidden;rotatable=0;points=[[0,0.5],[1,0.5]];portConstraint=eastwest;" vertex="1" parent="low-MrS_bK9RDzKWT8P9-9">
          <mxGeometry y="26" width="280" height="26" as="geometry" />
        </mxCell>
        <mxCell id="low-MrS_bK9RDzKWT8P9-21" value="+ RequestFileMz : string" style="text;strokeColor=none;fillColor=none;align=left;verticalAlign=top;spacingLeft=4;spacingRight=4;overflow=hidden;rotatable=0;points=[[0,0.5],[1,0.5]];portConstraint=eastwest;" vertex="1" parent="low-MrS_bK9RDzKWT8P9-9">
          <mxGeometry y="52" width="280" height="26" as="geometry" />
        </mxCell>
        <mxCell id="low-MrS_bK9RDzKWT8P9-22" value="+ RequestDescription : string" style="text;strokeColor=none;fillColor=none;align=left;verticalAlign=top;spacingLeft=4;spacingRight=4;overflow=hidden;rotatable=0;points=[[0,0.5],[1,0.5]];portConstraint=eastwest;" vertex="1" parent="low-MrS_bK9RDzKWT8P9-9">
          <mxGeometry y="78" width="280" height="26" as="geometry" />
        </mxCell>
        <mxCell id="low-MrS_bK9RDzKWT8P9-23" value="+ RequestEnclosures : string" style="text;strokeColor=none;fillColor=none;align=left;verticalAlign=top;spacingLeft=4;spacingRight=4;overflow=hidden;rotatable=0;points=[[0,0.5],[1,0.5]];portConstraint=eastwest;" vertex="1" parent="low-MrS_bK9RDzKWT8P9-9">
          <mxGeometry y="104" width="280" height="26" as="geometry" />
        </mxCell>
        <mxCell id="low-MrS_bK9RDzKWT8P9-24" value="+ QRCode : byte[]" style="text;strokeColor=none;fillColor=none;align=left;verticalAlign=top;spacingLeft=4;spacingRight=4;overflow=hidden;rotatable=0;points=[[0,0.5],[1,0.5]];portConstraint=eastwest;" vertex="1" parent="low-MrS_bK9RDzKWT8P9-9">
          <mxGeometry y="130" width="280" height="26" as="geometry" />
        </mxCell>
        <mxCell id="low-MrS_bK9RDzKWT8P9-25" value="+ SubTypeID : int?" style="text;strokeColor=none;fillColor=none;align=left;verticalAlign=top;spacingLeft=4;spacingRight=4;overflow=hidden;rotatable=0;points=[[0,0.5],[1,0.5]];portConstraint=eastwest;" vertex="1" parent="low-MrS_bK9RDzKWT8P9-9">
          <mxGeometry y="156" width="280" height="26" as="geometry" />
        </mxCell>
        <mxCell id="low-MrS_bK9RDzKWT8P9-26" value="+ SignatoryId : int" style="text;strokeColor=none;fillColor=none;align=left;verticalAlign=top;spacingLeft=4;spacingRight=4;overflow=hidden;rotatable=0;points=[[0,0.5],[1,0.5]];portConstraint=eastwest;" vertex="1" parent="low-MrS_bK9RDzKWT8P9-9">
          <mxGeometry y="182" width="280" height="26" as="geometry" />
        </mxCell>
        <mxCell id="low-MrS_bK9RDzKWT8P9-27" value="+ PerformerId : int" style="text;strokeColor=none;fillColor=none;align=left;verticalAlign=top;spacingLeft=4;spacingRight=4;overflow=hidden;rotatable=0;points=[[0,0.5],[1,0.5]];portConstraint=eastwest;" vertex="1" parent="low-MrS_bK9RDzKWT8P9-9">
          <mxGeometry y="208" width="280" height="26" as="geometry" />
        </mxCell>
        <mxCell id="low-MrS_bK9RDzKWT8P9-28" value="+ ApplicantTransferDate : DateTime?" style="text;strokeColor=none;fillColor=none;align=left;verticalAlign=top;spacingLeft=4;spacingRight=4;overflow=hidden;rotatable=0;points=[[0,0.5],[1,0.5]];portConstraint=eastwest;" vertex="1" parent="low-MrS_bK9RDzKWT8P9-9">
          <mxGeometry y="234" width="280" height="26" as="geometry" />
        </mxCell>
        <mxCell id="low-MrS_bK9RDzKWT8P9-29" value="+ DtEndPlan : DateTime?" style="text;strokeColor=none;fillColor=none;align=left;verticalAlign=top;spacingLeft=4;spacingRight=4;overflow=hidden;rotatable=0;points=[[0,0.5],[1,0.5]];portConstraint=eastwest;" vertex="1" parent="low-MrS_bK9RDzKWT8P9-9">
          <mxGeometry y="260" width="280" height="26" as="geometry" />
        </mxCell>
        <mxCell id="low-MrS_bK9RDzKWT8P9-30" value="+ DtEndFact : DateTime?" style="text;strokeColor=none;fillColor=none;align=left;verticalAlign=top;spacingLeft=4;spacingRight=4;overflow=hidden;rotatable=0;points=[[0,0.5],[1,0.5]];portConstraint=eastwest;" vertex="1" parent="low-MrS_bK9RDzKWT8P9-9">
          <mxGeometry y="286" width="280" height="26" as="geometry" />
        </mxCell>
        <mxCell id="low-MrS_bK9RDzKWT8P9-31" value="+ DtHandedFact : DateTime?" style="text;strokeColor=none;fillColor=none;align=left;verticalAlign=top;spacingLeft=4;spacingRight=4;overflow=hidden;rotatable=0;points=[[0,0.5],[1,0.5]];portConstraint=eastwest;" vertex="1" parent="low-MrS_bK9RDzKWT8P9-9">
          <mxGeometry y="312" width="280" height="26" as="geometry" />
        </mxCell>
        <mxCell id="low-MrS_bK9RDzKWT8P9-32" value="+ HandedFactUserId : int?" style="text;strokeColor=none;fillColor=none;align=left;verticalAlign=top;spacingLeft=4;spacingRight=4;overflow=hidden;rotatable=0;points=[[0,0.5],[1,0.5]];portConstraint=eastwest;" vertex="1" parent="low-MrS_bK9RDzKWT8P9-9">
          <mxGeometry y="338" width="280" height="26" as="geometry" />
        </mxCell>
        <mxCell id="low-MrS_bK9RDzKWT8P9-33" value="+ RequestFileFgbu : int?" style="text;strokeColor=none;fillColor=none;align=left;verticalAlign=top;spacingLeft=4;spacingRight=4;overflow=hidden;rotatable=0;points=[[0,0.5],[1,0.5]];portConstraint=eastwest;" vertex="1" parent="low-MrS_bK9RDzKWT8P9-9">
          <mxGeometry y="364" width="280" height="26" as="geometry" />
        </mxCell>
        <mxCell id="low-MrS_bK9RDzKWT8P9-34" value="+ ApplicantFirstSeen : DateTime?" style="text;strokeColor=none;fillColor=none;align=left;verticalAlign=top;spacingLeft=4;spacingRight=4;overflow=hidden;rotatable=0;points=[[0,0.5],[1,0.5]];portConstraint=eastwest;" vertex="1" parent="low-MrS_bK9RDzKWT8P9-9">
          <mxGeometry y="390" width="280" height="26" as="geometry" />
        </mxCell>
        <mxCell id="low-MrS_bK9RDzKWT8P9-11" value="" style="line;strokeWidth=1;fillColor=none;align=left;verticalAlign=middle;spacingTop=-1;spacingLeft=3;spacingRight=3;rotatable=0;labelPosition=right;points=[];portConstraint=eastwest;strokeColor=inherit;" vertex="1" parent="low-MrS_bK9RDzKWT8P9-9">
          <mxGeometry y="416" width="280" height="8" as="geometry" />
        </mxCell>
        <mxCell id="low-MrS_bK9RDzKWT8P9-12" value=" " style="text;strokeColor=none;fillColor=none;align=left;verticalAlign=top;spacingLeft=4;spacingRight=4;overflow=hidden;rotatable=0;points=[[0,0.5],[1,0.5]];portConstraint=eastwest;" vertex="1" parent="low-MrS_bK9RDzKWT8P9-9">
          <mxGeometry y="424" width="280" height="26" as="geometry" />
        </mxCell>
        <mxCell id="low-MrS_bK9RDzKWT8P9-13" value="ApplicantRequestBase" style="swimlane;fontStyle=1;align=center;verticalAlign=top;childLayout=stackLayout;horizontal=1;startSize=26;horizontalStack=0;resizeParent=1;resizeParentMax=0;resizeLast=0;collapsible=1;marginBottom=0;" vertex="1" parent="1">
          <mxGeometry x="334" y="-60" width="276" height="216" as="geometry" />
        </mxCell>
        <mxCell id="low-MrS_bK9RDzKWT8P9-14" value="+ TradeName : TradeDescription" style="text;strokeColor=none;fillColor=none;align=left;verticalAlign=top;spacingLeft=4;spacingRight=4;overflow=hidden;rotatable=0;points=[[0,0.5],[1,0.5]];portConstraint=eastwest;" vertex="1" parent="low-MrS_bK9RDzKWT8P9-13">
          <mxGeometry y="26" width="276" height="26" as="geometry" />
        </mxCell>
        <mxCell id="low-MrS_bK9RDzKWT8P9-51" value="+ Organization : OldOrganization" style="text;strokeColor=none;fillColor=none;align=left;verticalAlign=top;spacingLeft=4;spacingRight=4;overflow=hidden;rotatable=0;points=[[0,0.5],[1,0.5]];portConstraint=eastwest;" vertex="1" parent="low-MrS_bK9RDzKWT8P9-13">
          <mxGeometry y="52" width="276" height="26" as="geometry" />
        </mxCell>
        <mxCell id="low-MrS_bK9RDzKWT8P9-52" value="+ DocumentId : long" style="text;strokeColor=none;fillColor=none;align=left;verticalAlign=top;spacingLeft=4;spacingRight=4;overflow=hidden;rotatable=0;points=[[0,0.5],[1,0.5]];portConstraint=eastwest;" vertex="1" parent="low-MrS_bK9RDzKWT8P9-13">
          <mxGeometry y="78" width="276" height="26" as="geometry" />
        </mxCell>
        <mxCell id="low-MrS_bK9RDzKWT8P9-53" value="+ RequestType : ApplicantRequestType" style="text;strokeColor=none;fillColor=none;align=left;verticalAlign=top;spacingLeft=4;spacingRight=4;overflow=hidden;rotatable=0;points=[[0,0.5],[1,0.5]];portConstraint=eastwest;" vertex="1" parent="low-MrS_bK9RDzKWT8P9-13">
          <mxGeometry y="104" width="276" height="26" as="geometry" />
        </mxCell>
        <mxCell id="low-MrS_bK9RDzKWT8P9-55" value="+ InternalState : State" style="text;strokeColor=none;fillColor=none;align=left;verticalAlign=top;spacingLeft=4;spacingRight=4;overflow=hidden;rotatable=0;points=[[0,0.5],[1,0.5]];portConstraint=eastwest;" vertex="1" parent="low-MrS_bK9RDzKWT8P9-13">
          <mxGeometry y="130" width="276" height="26" as="geometry" />
        </mxCell>
        <mxCell id="low-MrS_bK9RDzKWT8P9-15" value="" style="line;strokeWidth=1;fillColor=none;align=left;verticalAlign=middle;spacingTop=-1;spacingLeft=3;spacingRight=3;rotatable=0;labelPosition=right;points=[];portConstraint=eastwest;strokeColor=inherit;" vertex="1" parent="low-MrS_bK9RDzKWT8P9-13">
          <mxGeometry y="156" width="276" height="8" as="geometry" />
        </mxCell>
        <mxCell id="low-MrS_bK9RDzKWT8P9-60" value="+ Link : string" style="text;strokeColor=none;fillColor=none;align=left;verticalAlign=top;spacingLeft=4;spacingRight=4;overflow=hidden;rotatable=0;points=[[0,0.5],[1,0.5]];portConstraint=eastwest;" vertex="1" parent="low-MrS_bK9RDzKWT8P9-13">
          <mxGeometry y="164" width="276" height="26" as="geometry" />
        </mxCell>
        <mxCell id="low-MrS_bK9RDzKWT8P9-16" value="+ MakeOutNumber(int count, string postFix)" style="text;strokeColor=none;fillColor=none;align=left;verticalAlign=top;spacingLeft=4;spacingRight=4;overflow=hidden;rotatable=0;points=[[0,0.5],[1,0.5]];portConstraint=eastwest;" vertex="1" parent="low-MrS_bK9RDzKWT8P9-13">
          <mxGeometry y="190" width="276" height="26" as="geometry" />
        </mxCell>
        <mxCell id="low-MrS_bK9RDzKWT8P9-18" value="" style="endArrow=block;endSize=16;endFill=0;html=1;rounded=0;edgeStyle=orthogonalEdgeStyle;exitX=0.5;exitY=0;exitDx=0;exitDy=0;" edge="1" parent="1" source="low-MrS_bK9RDzKWT8P9-9" target="low-MrS_bK9RDzKWT8P9-13">
          <mxGeometry width="160" relative="1" as="geometry">
            <mxPoint x="330" y="410" as="sourcePoint" />
            <mxPoint x="490" y="410" as="targetPoint" />
          </mxGeometry>
        </mxCell>
        <mxCell id="low-MrS_bK9RDzKWT8P9-19" value="" style="endArrow=block;endSize=16;endFill=0;html=1;rounded=0;edgeStyle=orthogonalEdgeStyle;exitX=0.5;exitY=0;exitDx=0;exitDy=0;" edge="1" parent="1" source="low-MrS_bK9RDzKWT8P9-1" target="low-MrS_bK9RDzKWT8P9-13">
          <mxGeometry width="160" relative="1" as="geometry">
            <mxPoint x="180" y="380" as="sourcePoint" />
            <mxPoint x="424" y="176" as="targetPoint" />
          </mxGeometry>
        </mxCell>
        <mxCell id="low-MrS_bK9RDzKWT8P9-20" value="" style="endArrow=block;endSize=16;endFill=0;html=1;rounded=0;edgeStyle=orthogonalEdgeStyle;exitX=0.5;exitY=0;exitDx=0;exitDy=0;" edge="1" parent="1" source="low-MrS_bK9RDzKWT8P9-5" target="low-MrS_bK9RDzKWT8P9-13">
          <mxGeometry width="160" relative="1" as="geometry">
            <mxPoint x="456.75" y="380" as="sourcePoint" />
            <mxPoint x="424" y="176" as="targetPoint" />
          </mxGeometry>
        </mxCell>
        <mxCell id="low-MrS_bK9RDzKWT8P9-35" value="ClinicalStudyApplicantRequestFGBU" style="swimlane;fontStyle=1;align=center;verticalAlign=top;childLayout=stackLayout;horizontal=1;startSize=26;horizontalStack=0;resizeParent=1;resizeParentMax=0;resizeLast=0;collapsible=1;marginBottom=0;" vertex="1" parent="1">
          <mxGeometry x="600" y="370" width="246.5" height="86" as="geometry">
            <mxRectangle x="590" y="370" width="250" height="30" as="alternateBounds" />
          </mxGeometry>
        </mxCell>
        <mxCell id="low-MrS_bK9RDzKWT8P9-36" value="+ RequestId : int" style="text;strokeColor=none;fillColor=none;align=left;verticalAlign=top;spacingLeft=4;spacingRight=4;overflow=hidden;rotatable=0;points=[[0,0.5],[1,0.5]];portConstraint=eastwest;" vertex="1" parent="low-MrS_bK9RDzKWT8P9-35">
          <mxGeometry y="26" width="246.5" height="26" as="geometry" />
        </mxCell>
        <mxCell id="low-MrS_bK9RDzKWT8P9-37" value="" style="line;strokeWidth=1;fillColor=none;align=left;verticalAlign=middle;spacingTop=-1;spacingLeft=3;spacingRight=3;rotatable=0;labelPosition=right;points=[];portConstraint=eastwest;strokeColor=inherit;" vertex="1" parent="low-MrS_bK9RDzKWT8P9-35">
          <mxGeometry y="52" width="246.5" height="8" as="geometry" />
        </mxCell>
        <mxCell id="low-MrS_bK9RDzKWT8P9-38" value=" " style="text;strokeColor=none;fillColor=none;align=left;verticalAlign=top;spacingLeft=4;spacingRight=4;overflow=hidden;rotatable=0;points=[[0,0.5],[1,0.5]];portConstraint=eastwest;" vertex="1" parent="low-MrS_bK9RDzKWT8P9-35">
          <mxGeometry y="60" width="246.5" height="26" as="geometry" />
        </mxCell>
        <mxCell id="low-MrS_bK9RDzKWT8P9-50" value="" style="endArrow=block;endSize=16;endFill=0;html=1;rounded=0;edgeStyle=orthogonalEdgeStyle;exitX=0.5;exitY=0;exitDx=0;exitDy=0;" edge="1" parent="1" source="low-MrS_bK9RDzKWT8P9-35" target="low-MrS_bK9RDzKWT8P9-13">
          <mxGeometry width="160" relative="1" as="geometry">
            <mxPoint x="456.7500000000001" y="380.0000000000001" as="sourcePoint" />
            <mxPoint x="423.9655172413793" y="175.9999999999999" as="targetPoint" />
          </mxGeometry>
        </mxCell>
      </root>
    </mxGraphModel>
  </diagram>
</mxfile>
